<svg xmlns="http://www.w3.org/2000/svg" width="27" height="40" viewBox="0 0 27 40" fill="none">
  <path d="M13.2858 40L11.9712 38.2374C10.2685 35.8158 8.54896 33.1504 6.99729 30.528C5.66838 28.303 4.46602 26.1548 3.51848 24.3188L3.51173 24.3044C1.17621 19.4579 -0.00504634 15.7648 1.62033e-05 13.3314C0.00845378 9.3328 1.26565 5.97211 3.62817 3.61044C5.99069 1.24876 9.34885 0 13.3457 0H13.3871C17.2979 0.00843757 20.6434 1.29939 23.054 3.73194C25.4646 6.16449 26.7243 9.4948 26.7167 13.3862C26.7117 15.8441 25.4511 19.6368 23.0844 24.3551V24.3626C22.195 26.0696 21.0011 28.3156 19.6486 30.5592C17.9729 33.3638 16.1799 36.0149 14.6476 38.2374C14.3565 38.6719 14.0629 39.0381 13.7794 39.3925L13.2858 40ZM12.9323 37.5531L13.3145 38.0653C13.4318 37.91 13.5482 37.748 13.6647 37.5742C15.1876 35.3534 16.9713 32.726 18.6302 29.9492C19.9667 27.7343 21.1479 25.5102 22.0297 23.8193C24.3179 19.268 25.5296 15.6601 25.5346 13.3845C25.5507 6.10121 20.667 1.19729 13.3845 1.18126H13.3457C5.85738 1.18126 1.19731 5.83374 1.18128 13.3314C1.17621 15.5547 2.34904 19.1685 4.57234 23.7838C5.50722 25.5971 6.69692 27.72 8.01571 29.9239C9.54882 32.5192 11.249 35.156 12.9323 37.5472V37.5531ZM13.3601 21.7529H13.3398C10.9251 21.7503 8.61038 20.7886 6.90476 19.0794C5.19914 17.3701 4.24238 15.0533 4.24496 12.6386C4.24753 10.224 5.20923 7.9092 6.91848 6.20358C8.62774 4.49797 10.9445 3.54121 13.3592 3.54378H13.3795C15.1798 3.54569 16.9391 4.08204 18.4343 5.08483C19.9295 6.08763 21.0933 7.51174 21.7783 9.17668C22.4633 10.8416 22.6386 12.6724 22.282 14.4371C21.9254 16.2018 21.0529 17.8209 19.7752 19.0892C18.9342 19.9338 17.9344 20.6038 16.8334 21.0605C15.7325 21.5173 14.552 21.7517 13.3601 21.7504V21.7529ZM13.3601 4.7301C11.2734 4.7493 9.27862 5.59112 7.80908 7.07266C6.33954 8.5542 5.51398 10.5558 5.51176 12.6425C5.50953 14.7293 6.33083 16.7326 7.79721 18.2173C9.26359 19.7019 11.2566 20.548 13.3432 20.5716H13.3609C15.4623 20.5738 17.4785 19.741 18.9659 18.2566C20.4533 16.7722 21.2901 14.7577 21.2922 12.6564C21.2944 10.555 20.4616 8.5388 18.9772 7.05139C17.4928 5.56398 15.4783 4.72717 13.3769 4.72504L13.3601 4.7301Z" fill="#426572"/>
</svg>